<svg xmlns="http://www.w3.org/2000/svg" width="114" height="177" viewBox="0 0 114 177">
  <defs>
    <style>
      svg {
        color: black;
        color-scheme: light dark;
      }
      @media (prefers-color-scheme: dark) {
        svg {
          color: white;
        }
      }
    </style>
  </defs>
  <g transform="translate(2 2)">
    <ellipse cx="55" cy="86.5" rx="55" ry="86.5" fill="none" stroke="#000" stroke-miterlimit="10" stroke-width="4"/>
    <ellipse cx="48.533" cy="76.627" rx="48.533" ry="76.627" transform="translate(6.472 10.224)" fill="none"
             stroke="#000" stroke-miterlimit="10" stroke-width="4"/>
    <path d="M284.745,404.066c-2.5-3.176-2.883-7.519-2.626-11.551s1.055-8.077.542-12.085-2.73-8.143-6.551-9.45"
          transform="translate(-231.795 -262.4)" fill="none" stroke="#000" stroke-miterlimit="10" stroke-width="3"/>
    <path d="M276.394,323.318c-1.667-3.7-1.1-7.986,0-11.812s2.721-7.523,3.094-11.518-.823-8.544-4.136-10.778"
          transform="translate(-231.348 -214.448)" fill="none" stroke="#000" stroke-miterlimit="10" stroke-width="3"/>
    <path d="M250.027,330.9c-3.875-1.2-5.145-6.208-6.224-10.037s-.674-9.165-2.465-12.755-6.183-5.492-10.178-5.645"
          transform="translate(-205.436 -222.218)" fill="none" stroke="#000" stroke-miterlimit="10" stroke-width="3"/>
    <path
      d="M284.29,351.387a8.857,8.857,0,0,0,1.936-6.257c-.033-2.146-.393-4.276.041-6.435a6.985,6.985,0,0,1,4.243-5.265"
      transform="translate(-236.592 -240.38)" fill="none" stroke="#000" stroke-miterlimit="10" stroke-width="3"/>
    <path d="M267.275,389.384a8.868,8.868,0,0,0-6.117-2.341c-2.142-.108-4.293.112-6.419-.459a7,7,0,0,1-4.979-4.574"
          transform="translate(-216.343 -268.868)" fill="none" stroke="#000" stroke-miterlimit="10" stroke-width="3"/>
    <path d="M292.11,359.054c1.183-3.71,4.434-6.369,7.788-8.346s7.01-3.532,9.922-6.113,5.013-6.58,3.987-10.335"
          transform="translate(-241.178 -240.866)" fill="none" stroke="#000" stroke-miterlimit="10" stroke-width="3"/>
    <path
      d="M228.931,362.652a.109.109,0,0,1-.074.066,10.4,10.4,0,0,1-12.862-9.516,11.269,11.269,0,0,0-3.47-7.461.092.092,0,0,1,.091-.157c4.19,1.315,8.462,2.73,11.849,5.513C227.943,353.954,230.308,358.644,228.931,362.652Z"
      transform="translate(-194.489 -247.504)" stroke="#000" stroke-miterlimit="10" stroke-width="1"/>
    <path
      d="M270.89,266.937a.118.118,0,0,1-.1.033,10.406,10.406,0,0,1-7.858-13.937,11.287,11.287,0,0,0-.12-8.23.092.092,0,0,1,.145-.108c3.288,2.912,6.609,5.947,8.565,9.868C273.537,258.6,273.785,263.844,270.89,266.937Z"
      transform="translate(-223.681 -188.329)" stroke="#000" stroke-miterlimit="10" stroke-width="1"/>
    <path
      d="M230.334,285.238a.108.108,0,0,0,.074-.066,10.4,10.4,0,0,0-8.073-13.813,11.262,11.262,0,0,1-7.043-4.256.091.091,0,0,0-.165.07c.856,4.309,1.8,8.706,4.2,12.374C221.8,283.319,226.2,286.177,230.334,285.238Z"
      transform="translate(-196.032 -201.46)" stroke="#000" stroke-miterlimit="10" stroke-width="1"/>
    <path
      d="M291.887,313.075a4.252,4.252,0,0,1-.778-4.69,5.955,5.955,0,0,0-2.072-7.32,1.3,1.3,0,0,1-.211-1.845,1.953,1.953,0,0,1,1.9-.591,4.015,4.015,0,0,1,1.807,1.009,8.9,8.9,0,0,1,2.945,7.014A8.136,8.136,0,0,1,291.887,313.075Z"
      transform="translate(-239.086 -219.946)" stroke="#000" stroke-miterlimit="10" stroke-width="1"/>
    <path
      d="M296.99,329.866a4.254,4.254,0,0,0,4.541,1.4,5.947,5.947,0,0,1,6.973,3.04,1.3,1.3,0,0,0,1.8.455,1.948,1.948,0,0,0,.84-1.8,4,4,0,0,0-.757-1.923,8.9,8.9,0,0,0-6.555-3.859A8.1,8.1,0,0,0,296.99,329.866Z"
      transform="translate(-244.04 -236.695)" stroke="#000" stroke-miterlimit="10" stroke-width="1"/>
    <path
      d="M327.889,303.645c-3.652-4.624-2.477-8.4-1.137-9s5.381,1.443,5.993,6.812c.542,4.76,2.477,8.4,1.137,9S330.859,307.4,327.889,303.645Z"
      transform="translate(-260.729 -217.575)" stroke="#000" stroke-miterlimit="10" stroke-width="1"/>
    <path
      d="M353.95,339.948c3.875,4.438,2.883,8.267,1.572,8.933s-5.443-1.179-6.315-6.514c-.773-4.727-2.883-8.267-1.572-8.933S350.8,336.338,353.95,339.948Z"
      transform="translate(-273.493 -240.334)" stroke="#000" stroke-miterlimit="10" stroke-width="1"/>
    <path
      d="M358.574,311.874c4.392-3.929,8.23-2.982,8.917-1.679s-1.113,5.459-6.435,6.394c-4.719.831-8.23,2.982-8.917,1.679S355,315.067,358.574,311.874Z"
      transform="translate(-276.33 -226.09)" stroke="#000" stroke-miterlimit="10" stroke-width="1"/>
    <path
      d="M360.732,333.374c5.865.567,7.771,4.028,7.279,5.414s-4.769,2.883-9.061-.4c-3.809-2.907-7.771-4.028-7.279-5.414S355.964,332.91,360.732,333.374Z"
      transform="translate(-276.082 -239.752)" stroke="#000" stroke-miterlimit="10" stroke-width="1"/>
    <path
      d="M347.233,300.6c.434-5.877,3.854-7.858,5.252-7.4s2.986,4.7-.194,9.07c-2.821,3.871-3.855,7.858-5.252,7.4S346.882,305.375,347.233,300.6Z"
      transform="translate(-273.009 -216.75)" stroke="#000" stroke-miterlimit="10" stroke-width="1"/>
    <circle cx="2.68" cy="2.68" r="2.68" transform="translate(71.776 90.221)" stroke="#000" stroke-miterlimit="10"
            stroke-width="1"/>
    <path d="M348.338,243.51a12.682,12.682,0,0,1-1.4,4.185" transform="translate(-273.332 -187.648)" fill="#fff"
          stroke="#000" stroke-miterlimit="10" stroke-width="3"/>
    <path
      d="M306.832,185.192a13.388,13.388,0,0,1,1.307-8.544,12.989,12.989,0,0,1,6.286-5.724,3.664,3.664,0,0,1,4.5.8,6.506,6.506,0,0,1,1.485,5.058c-.4,2.06-.67,2.63-1.191,4.632-.658,2.523-5.244,4.673-8.069,5.008"
      transform="translate(-249.688 -144.835)" fill="none" stroke="#000" stroke-miterlimit="10" stroke-width="3"/>
    <path d="M302.854,206.639a5.284,5.284,0,1,1-5.17,5.513A5.486,5.486,0,0,1,302.854,206.639Z"
          transform="translate(-244.445 -166.025)" stroke="#000" stroke-miterlimit="10" stroke-width="1"/>
    <path
      d="M285.674,203.174a6.417,6.417,0,0,0-2.246,6.381,2.709,2.709,0,0,0,.835,1.534,1.564,1.564,0,0,0,1.634.066,12.991,12.991,0,0,0,4.537-3.5c.885-1.042-.021-3.077-1-4.032A3.167,3.167,0,0,0,285.674,203.174Z"
      transform="translate(-235.995 -163.74)" fill="#9f7813" stroke="#000" stroke-miterlimit="10" stroke-width="1"/>
    <path
      d="M327.571,212.53a11.3,11.3,0,0,1-6.241,10.985q2.078,1.507,4.156,3.011a19.9,19.9,0,0,0,4.773-4.053,7.49,7.49,0,0,0,1.7-5.856A5.105,5.105,0,0,0,327.571,212.53Z"
      transform="translate(-258.314 -169.481)" fill="#fff" stroke="#000" stroke-miterlimit="10" stroke-width="1"/>
    <path
      d="M285.206,200.961a5.515,5.515,0,0,0-3.139,4.243,7.167,7.167,0,0,0,.951,5.062,1.748,1.748,0,0,0,2.089.612,11.946,11.946,0,0,0,3.247-2.328A7.667,7.667,0,0,0,290.3,205a3.515,3.515,0,0,0-1.084-3.739A3.769,3.769,0,0,0,285.206,200.961Z"
      transform="translate(-235.23 -162.444)" stroke="#000" stroke-miterlimit="10" stroke-width="1"/>
    <path d="M278.41,196.887a3.4,3.4,0,0,1,4.975,1.708" transform="translate(-233.144 -160.013)" fill="none"
          stroke="#000" stroke-miterlimit="10" stroke-width="3"/>
    <path
      d="M315.43,219.547c1.29,3.069,4.831,5.426,8.594,6.439a7.221,7.221,0,0,0,3.991.12,3.526,3.526,0,0,0,2.08-2.7,13.716,13.716,0,0,0-.691-6.692,9.617,9.617,0,0,0-4.74-5.459c-2.49-1.071-5.587-.7-7.1.806"
      transform="translate(-254.854 -168.371)" fill="none" stroke="#000" stroke-miterlimit="10" stroke-width="3"/>
    <path
      d="M320.38,222.734a10.108,10.108,0,0,0,5.914-11.1,11.234,11.234,0,0,1,4.549,3.35c1.183,1.538,1.754,2.415.43,5.41a10.492,10.492,0,0,1-3.615,4.62,3.4,3.4,0,0,1-3.718.625A11.71,11.71,0,0,1,320.38,222.734Z"
      transform="translate(-257.756 -168.953)" stroke="#000" stroke-miterlimit="10" stroke-width="1"/>
    <path
      d="M296.826,209.763c-.4,1.861.6,5.037,2.291,6.15,1.588,1.038,4.012,1.4,5.472.252a10.316,10.316,0,0,0,3.664-5.567,5.247,5.247,0,0,0-3.023-6.013,5.882,5.882,0,0,0-6.332,1.071A10.064,10.064,0,0,0,296.826,209.763Z"
      transform="translate(-243.893 -164.551)" stroke="#000" stroke-miterlimit="10" stroke-width="1"/>
  </g>
</svg>
