<svg xmlns="http://www.w3.org/2000/svg" width="215" height="100" viewBox="0 0 215 100">
  <defs>
    <style>
      svg {
        color: black;
        color-scheme: light dark;
      }
      @media (prefers-color-scheme: dark) {
        svg {
          color: white;
        }
      }
    </style>
  </defs>
  <g>
    <path fill-rule="evenodd" style="fill: #000;stroke: #000"
          d="m72.2 89.6c-0.7 5.3-6.6 9.5-12 9-6.1-0.5-11.1-6.3-11.1-13.1 0-6.1 4.6-11.9 10.6-12.9 6.1-0.9 11.8 3.7 13.1 10.1-7.2 0.2-13.1 0.1-19.6 0.1q-0.3 1-0.4 1.9-0.1 1 0 2 0 1 0.2 1.9 0.3 1 0.7 1.9 0.3 0.9 0.8 1.7 0.5 0.8 1.2 1.4 0.6 0.7 1.4 1.2 0.8 0.5 1.7 0.8 0.8 0.2 1.6 0.3 0.9 0.1 1.7 0 0.8 0 1.6-0.2 0.8-0.2 1.6-0.5c2-1.2 3.9-3.3 4.2-5.6 1.2-0.1 1.9 0 2.7 0zm-18.4-8.5c5 0 10.6 0.1 15.1 0.1q-0.3-1.5-1-2.8-0.8-1.3-2-2.2-1.1-0.9-2.5-1.4-1.4-0.5-2.9-0.5c-2.9 0.1-5.8 2.6-6.7 6.8z"/>
  </g>
  <g>
    <path fill-rule="evenodd" style="fill: #000;stroke: #000"
          d="m211 89.3q0.4 0 0.7 0 0.4 0 0.7 0 0.4 0 0.7 0c-0.8 5.3-6.7 9.5-12 9.1-6.1-0.6-11.2-6.4-11.2-13.1 0-6.1 4.7-12 10.7-12.9 6-1 11.8 3.6 13 10.1-7.2 0.1-13 0-19.5 0.1q-0.3 0.9-0.4 1.9-0.1 1-0.1 1.9 0.1 1 0.3 2 0.2 1 0.6 1.9 0.3 0.8 0.8 1.6 0.6 0.8 1.2 1.5 0.7 0.7 1.5 1.2 0.8 0.5 1.7 0.8 0.8 0.2 1.6 0.3 0.8 0 1.6 0 0.9-0.1 1.7-0.3 0.8-0.2 1.6-0.5c2-1.2 3.9-3.3 4.2-5.6q0.3 0 0.6 0zm-16.8-8.2c5 0 10.6 0.1 15.2 0.1q-0.3-1.5-1.1-2.8-0.8-1.3-1.9-2.2-1.2-0.9-2.6-1.4-1.4-0.5-2.9-0.5c-2.9 0.1-5.8 2.6-6.7 6.8z"/>
  </g>
  <g>
    <path style="fill: #000;stroke: #000"
          d="m159.5 98.1c1.8-1.3 1.4-15.4 0.8-22.9 1.7-0.8 3.4-1.3 5.5-2.2-0.5 8.9-0.4 22.9 1 25.1-2.1 0-4.8 0-7.3 0z"/>
    <path style="fill: #000;stroke: #000"
          d="m163.1 69.8c-1.4 0-2.6-1.2-2.6-2.6 0-1.4 1.2-2.6 2.6-2.6 1.5 0 2.6 1.2 2.6 2.6 0 1.4-1.1 2.6-2.6 2.6z"/>
  </g>
  <g>
    <path style="fill: #000;stroke: #000"
          d="m39.5 98.1c1.8-1.3 1.4-15.4 0.8-22.9 1.7-0.8 3.4-1.3 5.5-2.2-0.5 8.9-0.4 22.9 0.9 25.1-2 0-4.7 0-7.2 0z"/>
    <path style="fill: #000;stroke: #000"
          d="m43.1 69.8c-1.4 0-2.6-1.2-2.6-2.6 0-1.4 1.2-2.6 2.6-2.6 1.5 0 2.6 1.2 2.6 2.6 0 1.4-1.1 2.6-2.6 2.6z"/>
  </g>
  <path style="fill: #000;stroke: #000"
        d="m36.9 58q0.6 0.1 1.3 0.1 0.6 0 1.2 0 0.6 0 1.3 0 0.6-0.1 1.2-0.1c-3.3 0.4-13.9 26.2-19.8 39.9-0.5 0-0.9-0.1-2.1-0.1-6-14.1-11.2-28.2-19.1-39.8 2.8 0.1 6 0 8.4 0-0.3 4.4 8.4 22.7 14 33.3 4.7-11.2 15.6-30.2 13.6-33.3z"/>
  <g>
    <path style="fill: #000;stroke: #000"
          d="m81.8 75.3q0.8-0.5 1.5-1 0.8-0.5 1.7-0.9 0.8-0.4 1.6-0.7 0.9-0.4 1.8-0.7 0.8-0.3 1.7-0.4 1-0.2 1.9-0.1 0.9 0 1.8 0.2 0.9 0.2 1.8 0.6 0.8 0.3 1.5 1 0.7 0.6 1.2 1.3 0.5 0.8 0.7 1.7 0.3 0.9 0.3 1.8-0.2 2.6-0.2 5.2-0.1 2.6 0.1 5.1 0.2 2.6 0.5 5.2 0.4 2.5 0.9 5.1-3.5 0.1-7 0.2c0.6-6.9 0.8-13.9 0.8-21 0-1.9-0.8-3.8-2.6-4.4q-0.8-0.2-1.5-0.3-0.8 0-1.6 0.1-0.8 0.1-1.5 0.3-0.8 0.2-1.5 0.5-0.5 0.3-1.1 0.7-0.6 0.3-1.1 0.7-0.5 0.4-1.1 0.9-0.5 0.4-0.9 0.9"/>
    <path style="fill: #000;stroke: #000"
          d="m81.5 75.3q0.8-0.5 1.6-1 0.8-0.4 1.7-0.9 0.9-0.4 1.8-0.7 0.8-0.4 1.8-0.7 0.8-0.3 1.7-0.4 1-0.2 1.9-0.1 0.9 0 1.8 0.2 0.9 0.2 1.8 0.6 0.8 0.3 1.5 1 0.7 0.6 1.2 1.3 0.5 0.8 0.7 1.7 0.3 0.9 0.3 1.8-0.2 2.6-0.2 5.2-0.1 2.7 0.1 5.3 0.2 2.6 0.5 5.2 0.4 2.6 0.9 5.1h-7c0.6-6.9 0.8-13.9 0.8-21 0-1.9-0.8-3.8-2.6-4.4q-0.8-0.2-1.5-0.3-0.8 0-1.6 0.1-0.8 0.1-1.5 0.3-0.8 0.2-1.5 0.5-0.6 0.4-1.2 0.7-0.6 0.4-1.1 0.8-0.6 0.4-1.2 0.9-0.5 0.5-1 0.9"/>
    <path style="fill: #000;stroke: #000"
          d="m81.7 72c-0.4 8.9-1 18.3 0.8 27.1-2.4 0-4.6-0.1-7.4 0 1.8-7.9 1.4-16 0.5-24.2q0.7-0.4 1.5-0.8 0.7-0.4 1.5-0.8 0.8-0.3 1.5-0.7 0.8-0.3 1.6-0.6z"/>
  </g>
  <g>
    <path style="fill: #000;stroke: #000"
          d="m109.7 75.3q0.8-0.5 1.6-1 0.7-0.5 1.6-0.9 0.8-0.4 1.6-0.7 0.9-0.4 1.8-0.7 0.8-0.3 1.8-0.4 0.9-0.2 1.8-0.1 0.9 0 1.8 0.2 0.9 0.2 1.8 0.6 0.8 0.3 1.5 1 0.7 0.6 1.2 1.3 0.5 0.8 0.7 1.7 0.3 0.9 0.3 1.8-0.2 2.6-0.2 5.2-0.1 2.6 0.1 5.1 0.2 2.6 0.5 5.2 0.4 2.5 0.9 5.1-3.5 0.1-7 0.2c0.6-6.9 0.8-13.9 0.8-21 0-1.9-0.8-3.8-2.6-4.4q-0.7-0.2-1.5-0.3-0.8 0-1.6 0.1-0.7 0.1-1.5 0.3-0.7 0.2-1.5 0.5-0.5 0.3-1.1 0.7-0.6 0.3-1.1 0.7-0.5 0.4-1 0.9-0.6 0.4-1 0.9"/>
    <path style="fill: #000;stroke: #000"
          d="m109.4 75.3q0.8-0.5 1.6-1 0.8-0.4 1.7-0.9 0.9-0.4 1.8-0.7 0.9-0.4 1.8-0.7 0.8-0.3 1.8-0.4 0.9-0.2 1.8-0.1 0.9 0 1.8 0.2 0.9 0.2 1.8 0.6 0.8 0.3 1.5 1 0.7 0.6 1.2 1.3 0.5 0.8 0.7 1.7 0.3 0.9 0.3 1.8-0.2 2.6-0.2 5.2-0.1 2.7 0.1 5.3 0.2 2.6 0.5 5.2 0.4 2.6 0.9 5.1h-7c0.6-6.9 0.8-13.9 0.8-21 0-1.9-0.8-3.8-2.6-4.4q-0.7-0.2-1.5-0.3-0.8 0-1.6 0.1-0.7 0.1-1.5 0.3-0.7 0.2-1.5 0.5-0.6 0.4-1.2 0.7-0.6 0.4-1.1 0.8-0.6 0.4-1.1 0.9-0.6 0.5-1.1 0.9"/>
    <path style="fill: #000;stroke: #000"
          d="m109.6 72c-0.4 8.9-1 18.3 0.8 27.1-2.3 0-4.6-0.1-7.4 0 1.8-7.9 1.4-16 0.5-24.2q0.7-0.4 1.5-0.8 0.7-0.4 1.5-0.8 0.8-0.3 1.6-0.7 0.7-0.3 1.5-0.6z"/>
  </g>
  <g>
    <g>
      <path fill-rule="evenodd" style="fill: #000;stroke: #000"
            d="m149.5 73.2c1.7 0.7 3.1 1.7 4.4 2.9 1.2 1.3 2.2 2.7 2.9 4.3 0.7 1.7 1.1 3.4 1.1 5.2 0 5.3-3.3 10.2-8.2 12.3-5 2-10.7 0.9-14.5-2.9-3.8-3.7-5-9.4-3-14.4 2-5 6.8-8.3 12.2-8.4 1.8 0 3.5 0.4 5.1 1zm-1.2 0.9c-3.9-1.3-8.7 2.7-10.9 9.1-2.1 6.4-0.7 12.6 3.1 13.9 3.9 1.3 8.8-2.8 10.9-9.2 2.1-6.3 0.8-12.5-3.1-13.8z"/>
    </g>
  </g>
  <path style="fill: #000;stroke: #000"
        d="m184.5 78.3c-1.1-3.3-3.7-5.1-7.1-4.4q-0.7 0.2-1.4 0.6-0.6 0.4-1.1 1.1-0.4 0.6-0.6 1.4-0.2 0.7-0.1 1.5c0.5 1.9 2.1 3 3.8 4 1.7 0.9 3.7 1.4 5.5 2.2q0.7 0.3 1.4 0.7 0.6 0.4 1.2 0.9 0.6 0.5 1.1 1.1 0.5 0.6 0.9 1.2c1.6 2.8 0.4 6.7-2.2 8.7q-1 0.7-2.1 1.1-1.2 0.5-2.4 0.6-1.2 0.2-2.4 0.1-1.3-0.1-2.4-0.5c-3.2-0.9-5.7-2.9-8.2-5 0.9-0.9 1.8-1.8 2.7-2.7q0.2 0.8 0.5 1.5 0.4 0.8 0.9 1.5 0.5 0.6 1.1 1.2 0.6 0.5 1.3 0.9 0.7 0.4 1.5 0.6 0.8 0.2 1.7 0.2 0.8-0.1 1.6-0.4 0.8-0.3 1.4-0.8 0.7-0.4 1.1-1 0.4-0.6 0.6-1.3 0.2-0.7 0.2-1.4-0.1-0.7-0.4-1.4-0.3-0.6-0.7-1.2-0.4-0.5-0.9-1-0.5-0.5-1-0.8-0.6-0.4-1.2-0.6c-1.8-0.9-3.7-1.4-5.5-2.3q-0.7-0.3-1.3-0.7-0.6-0.4-1.2-0.9-0.5-0.5-1-1.1-0.4-0.6-0.8-1.2-0.3-1-0.3-2.1 0-1 0.3-2 0.3-1 0.9-1.8 0.7-0.9 1.5-1.5c2.2-1.6 5-1.7 7.7-1.2q1.1 0.3 2.1 0.7 1 0.4 1.9 0.9 1 0.5 1.9 1.1 0.8 0.6 1.7 1.3c-0.6 0.6-1.3 1.3-2.2 2.2z"/>
  <path style="fill: #000;stroke: #000"
        d="m15.2 18.7c0.6 0 1.2-0.3 1.2-0.9 0-0.8-1.3-0.9-1.3-2.4 0-0.5 0.2-0.9 0.6-1.3 0.3-0.3 0.8-0.5 1.3-0.5 0.5 0 0.9 0.2 1.3 0.5 0.3 0.4 0.5 0.8 0.6 1.3q0 0.7-0.3 1.4-0.3 0.6-0.8 1.1-0.6 0.6-1.2 0.8-0.7 0.3-1.4 0.4c0 0 0-0.4 0-0.4z"/>
  <path style="fill: #000;stroke: #000"
        d="m16.8 18.4q0-0.4-0.1-0.7 0-0.3-0.2-0.6-0.1-0.4-0.3-0.6-0.2-0.3-0.4-0.5-0.2-0.2-0.3-0.5 0-0.2 0-0.5 0-0.2 0.2-0.4 0.1-0.2 0.3-0.4 0.2-0.1 0.5-0.1 0.2 0 0.5 0 0.2 0.1 0.5 0.2 0.2 0.1 0.3 0.3 0.2 0.2 0.3 0.5 0.1 0.2 0.1 0.4 0 0.3 0 0.6 0 0.2-0.1 0.4-0.1 0.3-0.3 0.5-0.1 0.3-0.3 0.5-0.2 0.2-0.3 0.5-0.2 0.2-0.4 0.4z"/>
  <path style="fill: #000;stroke: #000"
        d="m1.6 50.1c1.8-2 1.5-23.1 0.8-34.3 1.8-1.1 3.4-1.9 5.5-3.2-0.5 13.3-0.4 34.3 1 37.4-2.1 0-4.8 0.1-7.3 0.1z"/>
  <path style="fill: #000;stroke: #000"
        d="m125.4 50.1c1.7-2.1 1.4-23.8 0.7-35.3 1.8-1.2 3.5-2 5.5-3.4-0.5 13.8-0.3 35.4 1 38.6-2.1 0-4.8 0.1-7.2 0.1z"/>
  <path style="fill: #000;stroke: #000"
        d="m49.1 50.5q0.3-4.3 0.4-8.6 0.2-4.3 0.2-8.6-0.1-4.3-0.3-8.6-0.2-4.4-0.6-8.7 0.8-0.4 1.5-0.8 0.7-0.5 1.5-0.9 0.8-0.4 1.5-0.8 0.8-0.3 1.6-0.7-0.5 4.7-0.8 9.4-0.2 4.8-0.1 9.5 0 4.7 0.4 9.4 0.3 4.7 1 9.4z"/>
  <g>
    <path fill-rule="evenodd" style="fill: #000;stroke: #000"
          d="m75.3 41.2q-0.4 1.8-1.3 3.4-0.9 1.6-2.2 2.9-1.3 1.3-3 2.2-1.6 0.8-3.5 1.1-1.8 0.3-3.7 0.1-1.8-0.1-3.6-0.8-1.7-0.7-3.2-1.8l-1.5-19.7q1.5-1.3 3.2-2.1 1.7-0.9 3.6-1.2 1.9-0.4 3.8-0.2 1.9 0.2 3.7 0.8 1.7 0.8 3.1 2 1.5 1.2 2.5 2.7 1.1 1.5 1.7 3.3 0.6 1.8 0.7 3.6 0.1 1.9-0.3 3.7zm-5.1-1.7q0.1-1.2 0.1-2.4 0-1.1-0.2-2.3-0.2-1.2-0.5-2.3-0.4-1.2-1.1-2.2-0.7-1.1-1.6-1.9-0.9-0.8-2.1-1.4-1.1-0.5-2.3-0.8-1.3-0.1-2.5 0.2-1.3 0.2-2.4 0.8-1.1 0.5-2.1 1.4-0.9 0.9-1.6 2l0.9 15.5c2 2.1 6.7 3.8 9.7 2.7 2.9-1.2 4.5-4 5.3-7q0.3-1.2 0.4-2.3z"/>
  </g>
  <g>
    <path fill-rule="evenodd" style="fill: #000;stroke: #000"
          d="m101.3 41.1c-0.8 5.3-6.7 9.5-12.1 9-6-0.6-11.1-6.4-11.1-13.1 0-6.1 4.6-11.9 10.7-12.9 6-1 11.8 3.7 13 10.1-7.2 0.2-13.1 0-19.5 0.1q-0.3 0.9-0.4 1.9-0.2 1-0.1 2 0 1 0.3 1.9 0.2 1 0.6 1.9 0.3 0.9 0.8 1.7 0.5 0.8 1.2 1.4 0.7 0.7 1.4 1.2 0.8 0.5 1.7 0.8 0.8 0.2 1.7 0.3 0.8 0.1 1.6 0 0.8 0 1.7-0.2 0.8-0.2 1.5-0.6c2.1-1.2 4-3.2 4.2-5.6 1.3 0 2 0 2.8 0.1zm-18.5-8.5c5 0 10.6 0.1 15.2 0.1q-0.3-1.5-1.1-2.8-0.7-1.3-1.9-2.2-1.2-0.9-2.6-1.4-1.4-0.5-2.9-0.5c-2.9 0.1-5.7 2.6-6.7 6.8z"/>
  </g>
  <g>
    <path fill-rule="evenodd" style="fill: #000;stroke: #000"
          d="m158.4 41.1c-0.8 5.3-6.7 9.5-12.1 9-6-0.6-11.1-6.4-11.1-13.1 0-6.1 4.7-11.9 10.7-12.9 6-1 11.8 3.7 13 10.1-7.2 0.2-13.1 0-19.5 0.1q-0.3 0.9-0.4 1.9-0.1 1-0.1 2 0.1 1 0.3 1.9 0.2 1 0.6 1.9 0.3 0.9 0.8 1.7 0.5 0.8 1.2 1.4 0.7 0.7 1.5 1.2 0.8 0.5 1.6 0.8 0.8 0.2 1.7 0.3 0.8 0.1 1.6 0 0.9 0 1.7-0.2 0.8-0.2 1.6-0.6c2-1.2 3.9-3.2 4.1-5.6 1.3 0 2 0 2.8 0.1zm-18.4-8.5c4.9 0 10.6 0.1 15.1 0.1q-0.3-1.5-1.1-2.8-0.7-1.3-1.9-2.2-1.1-0.9-2.6-1.4-1.4-0.5-2.9-0.5c-2.9 0.1-5.7 2.6-6.6 6.8z"/>
  </g>
  <path style="fill: #000;stroke: #000"
        d="m115.5 50.1c1.7-2.1 1.4-23.8 0.7-35.3 1.8-1.2 3.5-2 5.5-3.4-0.5 13.8-0.3 35.4 1 38.6-2.1 0-4.7 0.1-7.2 0.1z"/>
  <path style="fill: #000;stroke: #000"
        d="m104.1 50.1c1.8-1.3 1.4-15.4 0.8-22.9 1.7-0.8 3.4-1.3 5.5-2.2-0.5 8.9-0.4 22.9 0.9 25.1-2 0-4.7 0-7.2 0z"/>
  <path style="fill: #000;stroke: #000"
        d="m107.7 23.1c-1.4 0-2.6-1.2-2.6-2.6 0-1.5 1.2-2.7 2.6-2.7 1.5 0 2.6 1.2 2.6 2.7 0 1.4-1.1 2.6-2.6 2.6z"/>
  <path style="fill: none;stroke: #000"
        d="m106.2 20.7q-0.6-1.3-1-2.7-0.4-1.5-0.5-2.9-0.2-1.5-0.1-3 0-1.4 0.3-2.9 0.3-1.3 0.9-2.5 0.6-1.3 1.5-2.3 0.9-1.1 2-1.9 1-0.8 2.3-1.4 1.3-0.5 2.6-0.6 1.4-0.1 2.7 0.2 1.3 0.4 2.5 1.1 1.2 0.7 2.1 1.7c2.2 2.9 1.2 7.1-1.3 9.3"/>
  <g>
    <path fill-rule="evenodd" style="fill: #000;stroke: #000"
          d="m46.3 50.1c-2.6 0-4.9 0-7.7 0 0-2.3-0.3-4.2-1.6-8.6-5.4 0.2-11.6 0-17.2 0-1.3 2.5-2.2 7.3-1.4 8.4-1.1 0-2.1 0-3.5 0 6.5-12.1 10.3-24.5 15-37.3 0.5 0 1 0 1.4 0 4.2 13 8.5 25.7 15 37.5zm-10.1-9.6q-3.9-10.2-7.9-20.5c-2.3 6.7-4.9 13.7-7.6 20.5 5.3 0.1 10.5 0.1 15.5 0z"/>
  </g>
</svg>
