<svg xmlns="http://www.w3.org/2000/svg" width="214.25" height="99.682" viewBox="0 0 214.25 99.682"><g transform="translate(0.947 0.513)"><path d="M219.882,552.8c.576,0,1.188-.292,1.188-.9,0-.83-1.3-.867-1.3-2.422a1.9,1.9,0,0,1,3.789,0,3.852,3.852,0,0,1-3.685,3.685V552.8Z" transform="translate(-171.622 -534.611)" stroke="#000" stroke-miterlimit="10" stroke-width="1"/><path d="M221.568,552.61a3.139,3.139,0,0,0-.987-2.392,1.146,1.146,0,0,1,.247-1.727,1.451,1.451,0,0,1,1.809.389,2.027,2.027,0,0,1,.254,1.913A5.725,5.725,0,0,1,221.568,552.61Z" transform="translate(-171.753 -534.768)" stroke="#000" stroke-miterlimit="10" stroke-width="1"/><path d="M208.987,583.79c-1.353-3.184-1.487-24.156-.987-37.46-2.07,1.33-3.73,2.093-5.493,3.229.665,11.2,1.009,32.273-.777,34.321C204.234,583.88,206.9,583.79,208.987,583.79Z" transform="translate(-167.065 -534.265)" stroke="#000" stroke-miterlimit="10" stroke-width="1"/><path d="M374.547,583.4c-1.353-3.281-1.487-24.881-.987-38.589-2.07,1.368-3.73,2.153-5.493,3.326.665,11.533,1.009,33.245-.777,35.353C369.786,583.5,372.455,583.4,374.547,583.4Z" transform="translate(-208.883 -533.881)" stroke="#000" stroke-miterlimit="10" stroke-width="1"/><path d="M271.435,584.347a153.392,153.392,0,0,1-.486-37.707,52.1,52.1,0,0,0-6.039,3.236,208.4,208.4,0,0,1,.232,34.471Z" transform="translate(-183.023 -534.343)" stroke="#000" stroke-miterlimit="10" stroke-width="1"/><g transform="translate(86.386 24.518)"><path d="M293.181,575.479a13.354,13.354,0,0,0-8.012-11.57,14.078,14.078,0,0,0-14.238,2.608l1.495,19.694a13.385,13.385,0,0,0,14.007,1.413A13.055,13.055,0,0,0,293.181,575.479Zm-5.807,4.26c-.77,3.027-2.407,5.867-5.322,6.981s-7.676-.568-9.657-2.691l-.852-15.5a9.009,9.009,0,0,1,8.543-4.342,9.387,9.387,0,0,1,7.123,6.271A17.47,17.47,0,0,1,287.373,579.74Z" transform="translate(-270.93 -562.991)" stroke="#000" stroke-miterlimit="10" stroke-width="1"/></g><g transform="translate(111.163 23.465)"><path d="M324.492,578.651c-.247,2.324-2.145,4.395-4.186,5.6a10.145,10.145,0,0,1-6.51.463,8.479,8.479,0,0,1-5.127-5.112,11.071,11.071,0,0,1-.426-7.7c6.458-.052,12.34.082,19.545-.09-1.256-6.45-7.026-11.062-13.05-10.105s-10.658,6.8-10.658,12.893c0,6.749,5.045,12.549,11.114,13.095,5.389.486,11.271-3.73,12.056-9.036C326.42,578.644,325.762,578.584,324.492,578.651Zm-8.991-15.24a8.432,8.432,0,0,1,8.431,6.846c-4.522,0-10.15-.06-15.128-.06C309.723,566.005,312.586,563.509,315.5,563.412Z" transform="translate(-304.08 -561.582)" stroke="#000" stroke-miterlimit="10" stroke-width="1"/></g><g transform="translate(168.28 23.465)"><path d="M400.912,578.651c-.247,2.324-2.145,4.395-4.186,5.6a10.145,10.145,0,0,1-6.51.463,8.479,8.479,0,0,1-5.127-5.112,11.072,11.072,0,0,1-.426-7.7c6.458-.052,12.34.082,19.545-.09-1.256-6.45-7.026-11.062-13.05-10.105S380.5,568.509,380.5,574.6c0,6.749,5.045,12.549,11.114,13.095,5.389.486,11.271-3.73,12.056-9.036C402.84,578.644,402.182,578.584,400.912,578.651Zm-8.991-15.24a8.432,8.432,0,0,1,8.431,6.846c-4.522,0-10.15-.06-15.128-.06C386.143,566.005,389.006,563.509,391.92,563.412Z" transform="translate(-380.5 -561.582)" stroke="#000" stroke-miterlimit="10" stroke-width="1"/></g><path d="M361.3,583.4c-1.353-3.281-1.487-24.881-.987-38.589-2.07,1.368-3.73,2.153-5.493,3.326.665,11.533,1.009,33.245-.777,35.353C356.544,583.5,359.212,583.4,361.3,583.4Z" transform="translate(-205.536 -533.881)" stroke="#000" stroke-miterlimit="10" stroke-width="1"/><path d="M346.087,588.016c-1.353-2.13-1.487-16.174-.987-25.076-2.07.889-3.73,1.4-5.493,2.16.665,7.5,1.009,21.608-.777,22.975C341.334,588.076,344,588.016,346.087,588.016Z" transform="translate(-201.695 -538.46)" stroke="#000" stroke-miterlimit="10" stroke-width="1"/><circle cx="2.616" cy="2.616" r="2.616" transform="translate(138.152 17.334)" stroke="#000" stroke-miterlimit="10" stroke-width="1"/><path d="M355.1,542.432c2.534-2.16,3.52-6.375,1.278-9.238a8.735,8.735,0,0,0-9.881-2.392,11.581,11.581,0,0,0-6.659,8.1,18.751,18.751,0,0,0,1.256,11.488" transform="translate(-201.847 -530.187)" fill="none" stroke="#000" stroke-miterlimit="10" stroke-width="1"/><g transform="translate(47.909 12.065)"><path d="M235.856,546.33c-.381,0-.845.037-1.338.037-4.746,12.736-8.513,25.15-15.068,37.244,1.428,0,2.407,0,3.58.03-.837-1.129.067-5.919,1.323-8.371,5.621,0,11.876.179,17.28-.052,1.286,4.425,1.517,6.286,1.517,8.618,2.855,0,5.127.045,7.736.045C244.369,572.034,240.094,559.365,235.856,546.33ZM225.28,574.3c2.706-6.846,5.322-13.8,7.654-20.509q3.913,10.213,7.818,20.434C235.826,574.351,230.557,574.321,225.28,574.3Z" transform="translate(-219.45 -546.33)" stroke="#000" stroke-miterlimit="10" stroke-width="1"/></g><g transform="translate(0 57.5)"><g transform="translate(48.126 14.479)"><path d="M240.152,643.561c-.247,2.324-2.145,4.395-4.186,5.6a10.145,10.145,0,0,1-6.51.463,8.479,8.479,0,0,1-5.127-5.112,11.071,11.071,0,0,1-.426-7.7c6.458-.052,12.34.082,19.545-.09-1.256-6.45-7.026-11.062-13.05-10.105s-10.658,6.8-10.658,12.893c0,6.749,5.045,12.549,11.114,13.095,5.389.486,11.271-3.73,12.056-9.036C242.073,643.554,241.415,643.494,240.152,643.561Zm-9-15.24a8.432,8.432,0,0,1,8.431,6.846c-4.522,0-10.15-.06-15.128-.06C225.383,630.915,228.246,628.426,231.153,628.322Z" transform="translate(-219.74 -626.492)" stroke="#000" stroke-miterlimit="10" stroke-width="1"/></g><g transform="translate(188.991 14.225)"><path d="M428.622,643.221c-.247,2.324-2.145,4.395-4.186,5.6a10.144,10.144,0,0,1-6.51.463,8.479,8.479,0,0,1-5.127-5.112,11.072,11.072,0,0,1-.426-7.7c6.458-.052,12.34.082,19.545-.09-1.256-6.45-7.026-11.062-13.05-10.105s-10.658,6.8-10.658,12.893c0,6.749,5.045,12.549,11.114,13.095,5.389.486,11.271-3.73,12.056-9.036A27.544,27.544,0,0,0,428.622,643.221ZM419.2,628.236a8.432,8.432,0,0,1,8.431,6.846c-4.522,0-10.15-.06-15.128-.06C413.419,630.829,416.282,628.34,419.2,628.236Z" transform="translate(-408.21 -626.152)" stroke="#000" stroke-miterlimit="10" stroke-width="1"/></g><g transform="translate(158.549 6.57)"><path d="M374.737,652.246c-1.353-2.13-1.487-16.174-.987-25.076-2.07.889-3.73,1.4-5.493,2.16.665,7.5,1.009,21.608-.777,22.975C369.984,652.305,372.652,652.246,374.737,652.246Z" transform="translate(-367.48 -618.754)" stroke="#000" stroke-miterlimit="10" stroke-width="1"/><circle cx="2.616" cy="2.616" r="2.616" transform="translate(1.016)" stroke="#000" stroke-miterlimit="10" stroke-width="1"/></g><g transform="translate(38.544 6.57)"><path d="M214.177,652.246c-1.353-2.13-1.487-16.174-.987-25.076-2.07.889-3.73,1.4-5.493,2.16.665,7.5,1.009,21.608-.777,22.975C209.424,652.305,212.092,652.246,214.177,652.246Z" transform="translate(-206.92 -618.754)" stroke="#000" stroke-miterlimit="10" stroke-width="1"/><circle cx="2.616" cy="2.616" r="2.616" transform="translate(1.016)" stroke="#000" stroke-miterlimit="10" stroke-width="1"/></g><path d="M191.323,607.142a46.459,46.459,0,0,0,4.985-.022c-3.3.381-13.887,26.189-19.762,39.86-.59,0-.987-.075-2.1-.075-6.032-14.081-11.286-28.17-19.1-39.785,2.765.037,5.934,0,8.326,0-.224,4.372,8.423,22.669,14.044,33.282C182.369,629.214,193.289,610.2,191.323,607.142Z" transform="translate(-155.35 -607.12)" stroke="#000" stroke-miterlimit="10" stroke-width="1"/><g transform="translate(74.158 13.455)"><path d="M263.07,630.913a18.852,18.852,0,0,1,4.283-3.139,9.158,9.158,0,0,1,6.062-.643c1.786.576,2.616,2.556,2.608,4.44-.015,7.115-.217,14.074-.77,21.01,2.324-.09,4.649-.172,6.966-.262a73.156,73.156,0,0,1-1.345-20.539,6.3,6.3,0,0,0-3.707-5.86,10.114,10.114,0,0,0-7.2-.269,27.177,27.177,0,0,0-6.562,3.3" transform="translate(-256.717 -625.122)" stroke="#000" stroke-miterlimit="10" stroke-width="1"/><path d="M262.72,631.1a21.19,21.19,0,0,1,4.544-3.326,9.158,9.158,0,0,1,6.061-.643c1.786.576,2.616,2.556,2.608,4.44-.015,7.115-.217,14.074-.77,21.01h6.966a75,75,0,0,1-1.345-20.8,6.3,6.3,0,0,0-3.707-5.86,10.113,10.113,0,0,0-7.2-.269,29.559,29.559,0,0,0-6.9,3.341" transform="translate(-256.629 -625.122)" stroke="#000" stroke-miterlimit="10" stroke-width="1"/><path d="M261.177,625.82c-.448,8.879-.979,18.334.777,27.116-2.354,0-4.6-.075-7.384.03,1.816-7.975,1.383-16.054.471-24.246A45.335,45.335,0,0,1,261.177,625.82Z" transform="translate(-254.57 -625.299)" stroke="#000" stroke-miterlimit="10" stroke-width="1"/></g><g transform="translate(102.074 13.455)"><path d="M300.41,630.913a18.851,18.851,0,0,1,4.283-3.139,9.158,9.158,0,0,1,6.062-.643c1.786.576,2.616,2.556,2.608,4.44-.015,7.115-.217,14.074-.77,21.01,2.324-.09,4.649-.172,6.966-.262a73.159,73.159,0,0,1-1.345-20.539,6.3,6.3,0,0,0-3.707-5.86,10.113,10.113,0,0,0-7.2-.269,27.177,27.177,0,0,0-6.562,3.3" transform="translate(-294.065 -625.122)" stroke="#000" stroke-miterlimit="10" stroke-width="1"/><path d="M300.06,631.1a21.192,21.192,0,0,1,4.544-3.326,9.159,9.159,0,0,1,6.062-.643c1.786.576,2.616,2.556,2.608,4.44-.015,7.115-.217,14.074-.77,21.01h6.966a75,75,0,0,1-1.345-20.8,6.3,6.3,0,0,0-3.707-5.86,10.113,10.113,0,0,0-7.2-.269,29.558,29.558,0,0,0-6.9,3.341" transform="translate(-293.976 -625.122)" stroke="#000" stroke-miterlimit="10" stroke-width="1"/><path d="M298.527,625.82c-.448,8.879-.979,18.334.777,27.116-2.354,0-4.6-.075-7.384.03,1.816-7.975,1.383-16.054.471-24.246A44.913,44.913,0,0,1,298.527,625.82Z" transform="translate(-291.92 -625.299)" stroke="#000" stroke-miterlimit="10" stroke-width="1"/></g><g transform="translate(129.983 14.231)"><g transform="translate(0)"><path d="M342.728,626.16A13.32,13.32,0,1,0,356.2,639.479,13.4,13.4,0,0,0,342.728,626.16Zm7,15.681c-2.145,6.353-7.018,10.449-10.882,9.148s-5.254-7.511-3.109-13.872,7.018-10.449,10.882-9.148S351.869,635.488,349.724,641.841Z" transform="translate(-329.26 -626.16)" stroke="#000" stroke-miterlimit="10" stroke-width="1"/></g></g><path d="M397.647,629.867a18.8,18.8,0,0,0-7.541-4c-2.706-.523-5.5-.389-7.721,1.248a6.44,6.44,0,0,0-2.347,7.317,8.182,8.182,0,0,0,4.245,3.961c1.786.852,3.715,1.375,5.5,2.235a7.34,7.34,0,0,1,3.819,3.632,4.132,4.132,0,0,1-1.465,5.142,5.725,5.725,0,0,1-6.248.389,7.816,7.816,0,0,1-3.774-5.127c-.9.919-1.839,1.831-2.736,2.75,2.526,2.07,5.045,4.088,8.184,4.985a10.746,10.746,0,0,0,9.343-1.33c2.6-1.973,3.8-5.86,2.175-8.685a9.865,9.865,0,0,0-4.6-3.939c-1.824-.762-3.759-1.271-5.5-2.2s-3.326-2.048-3.767-3.976a4.211,4.211,0,0,1,3.184-4.619c3.386-.628,6.024,1.151,7.13,4.41C396.391,631.159,397.086,630.464,397.647,629.867Z" transform="translate(-211.937 -611.787)" stroke="#000" stroke-miterlimit="10" stroke-width="1"/></g></g></svg>