<svg version="1.2" xmlns="http://www.w3.org/2000/svg" viewBox="0 0 177 177" width="177" height="177">
  <style>
    svg {
      color: black;
      color-scheme: light dark;
    }
    @media (prefers-color-scheme: dark) {
      svg {
        color: white;
      }
    }
  </style>
  <path fill="none" stroke="#000" stroke-width="4"
        d="m88 175c-30.4 0-55-38.7-55-86.5 0-47.8 24.6-86.5 55-86.5 30.4 0 55 38.7 55 86.5 0 47.8-24.6 86.5-55 86.5z"/>
  <path fill="none" stroke="#000" stroke-width="4"
        d="m88 165.5c-26.8 0-48.5-34.3-48.5-76.6 0-42.4 21.7-76.7 48.5-76.7 26.8 0 48.5 34.3 48.5 76.7 0 42.3-21.7 76.6-48.5 76.6z"/>
  <path fill="none" stroke="#000" stroke-width="3" d="m77.3 110.6c3.8 1.3 6.1 5.4 6.6 9.4 0.5 4-0.3 8.1-0.6 12.1-0.2 4 0.2 8.4 2.7 11.6"/>
  <path fill="none" stroke="#000" stroke-width="3" d="m77 76.8c3.3 2.2 4.5 6.7 4.1 10.7-0.3 4-2 7.7-3.1 11.6-1.1 3.8-1.6 8.1 0 11.8"/>
  <path fill="none" stroke="#000" stroke-width="3" d="m58.7 82.2c4 0.2 8.4 2.1 10.2 5.7 1.8 3.6 1.4 8.9 2.5 12.7 1 3.9 2.3 8.9 6.2 10.1"/>
  <path fill="none" stroke="#000" stroke-width="3"
        d="m80.7 113q0.5-0.6 0.9-1.4 0.4-0.7 0.7-1.5 0.2-0.8 0.3-1.7 0.1-0.8 0-1.6c0-2.2-0.4-4.3 0.1-6.5q0.1-0.9 0.5-1.7 0.4-0.8 0.9-1.5 0.6-0.7 1.3-1.2 0.7-0.5 1.5-0.8"/>
  <path fill="none" stroke="#000" stroke-width="3"
        d="m83.9 122.5q-0.6-0.6-1.3-1-0.7-0.4-1.5-0.7-0.8-0.3-1.6-0.5-0.8-0.1-1.7-0.1c-2.1-0.1-4.3 0.1-6.4-0.5q-0.9-0.2-1.6-0.6-0.8-0.4-1.5-1-0.6-0.6-1.1-1.4-0.5-0.7-0.8-1.6"/>
  <path fill="none" stroke="#000" stroke-width="3" d="m105.6 95.4c1.1 3.7-1 7.7-4 10.3-2.9 2.6-6.5 4.2-9.9 6.1-3.3 2-6.6 4.7-7.8 8.4"/>
  <path stroke="#000"
        d="m67.4 117.1q0 0.1 0 0.1 0 0 0 0 0 0 0 0 0 0 0 0c-1.5 0.4-3.1 0.4-4.6 0.1-1.5-0.3-2.9-0.9-4.1-1.8-1.2-0.9-2.2-2.1-3-3.4-0.7-1.4-1.1-2.9-1.2-4.4q-0.1-1.1-0.3-2.1-0.3-1-0.7-2-0.5-0.9-1.1-1.8-0.6-0.8-1.4-1.6 0 0 0 0 0-0.1 0-0.1 0 0 0.1 0 0 0 0 0c4.2 1.3 8.5 2.7 11.9 5.5 3.5 2.9 5.8 7.5 4.4 11.5z"/>
  <path stroke="#000"
        d="m80.2 80.6q0 0 0 0 0 0 0 0-0.1 0-0.1 0 0 0 0 0c-1.5-0.2-2.9-0.8-4.2-1.7-1.2-0.9-2.2-2.1-3-3.4-0.7-1.3-1.2-2.8-1.3-4.3-0.1-1.5 0.1-3.1 0.7-4.5q0.3-1 0.5-2 0.2-1.1 0.2-2.1 0-1.1-0.3-2.1-0.2-1-0.6-2 0-0.1 0-0.1 0 0 0.1 0 0-0.1 0-0.1 0.1 0 0.1 0.1c3.3 2.9 6.6 5.9 8.5 9.8 2.1 4.1 2.3 9.3-0.6 12.4z"/>
  <path stroke="#000"
        d="m56.3 80.1c-2.4-3.7-3.3-8.1-4.2-12.4q0 0 0 0 0-0.1 0-0.1 0.1 0 0.1 0 0 0 0.1 0 0.6 0.9 1.4 1.6 0.8 0.7 1.7 1.2 0.9 0.6 1.9 1 1 0.3 2 0.5c1.5 0.2 2.9 0.8 4.2 1.7 1.3 0.9 2.3 2 3.1 3.3 0.8 1.3 1.2 2.8 1.4 4.3 0.1 1.5-0.1 3.1-0.6 4.5q0 0 0 0 0 0-0.1 0.1 0 0 0 0 0 0 0 0c-4.1 0.9-8.5-1.9-11-5.7z"/>
  <path stroke="#000"
        d="m85.8 95.1q-0.4-0.4-0.7-1-0.3-0.6-0.4-1.2-0.1-0.6 0-1.3 0.1-0.6 0.3-1.2 0.4-0.9 0.5-2 0.1-1-0.2-2-0.3-1-0.9-1.8-0.6-0.9-1.4-1.5-0.3-0.1-0.4-0.4-0.1-0.2-0.1-0.5-0.1-0.2 0-0.5 0.1-0.2 0.2-0.4 0.2-0.2 0.4-0.4 0.3-0.1 0.5-0.2 0.3-0.1 0.5-0.1 0.3 0 0.5 0.1 0.3 0 0.5 0.1 0.3 0.1 0.5 0.3 0.2 0.1 0.4 0.3 0.3 0.1 0.4 0.3 0.8 0.7 1.4 1.5 0.5 0.8 0.9 1.7 0.4 0.9 0.6 1.8 0.1 1 0.1 2 0 1-0.3 1.9-0.3 0.9-0.7 1.7-0.5 0.9-1.2 1.6-0.6 0.7-1.4 1.2z"/>
  <path stroke="#000"
        d="m87.4 93.9q0.8-0.5 1.6-0.9 0.9-0.3 1.9-0.5 0.9-0.1 1.9 0 1 0.1 1.9 0.4 1 0.3 1.8 0.8 0.9 0.5 1.6 1.2 0.7 0.6 1.2 1.4 0.2 0.3 0.3 0.5 0.2 0.2 0.3 0.5 0 0.2 0.1 0.5 0.1 0.2 0.1 0.5 0 0.2 0 0.5-0.1 0.2-0.2 0.5-0.1 0.2-0.2 0.4-0.2 0.2-0.4 0.4-0.3 0.1-0.5 0.1-0.3 0.1-0.5 0-0.3 0-0.5-0.2-0.2-0.2-0.3-0.4-0.5-0.9-1.3-1.6-0.7-0.8-1.7-1.2-0.9-0.4-2-0.5-1 0-2 0.3-0.6 0.2-1.3 0.2-0.6 0-1.2-0.2-0.6-0.2-1.1-0.6-0.6-0.3-0.9-0.8 0.6-0.7 1.4-1.3z"/>
  <path stroke="#000"
        d="m100.2 88.1c-3.7-4.7-2.5-8.4-1.2-9 1.4-0.6 5.4 1.4 6 6.8 0.6 4.7 2.5 8.4 1.2 9-1.4 0.6-3.1-3.1-6-6.8z"/>
  <path stroke="#000"
        d="m113.5 101.6c3.8 4.5 2.8 8.3 1.5 8.9-1.3 0.7-5.4-1.1-6.3-6.5-0.8-4.7-2.9-8.2-1.6-8.9 1.4-0.7 3.2 2.9 6.4 6.5z"/>
  <path stroke="#000"
        d="m115.2 87.8c4.4-3.9 8.3-3 9-1.7 0.6 1.3-1.2 5.5-6.5 6.4-4.7 0.8-8.2 3-8.9 1.7-0.7-1.3 2.9-3.2 6.4-6.4z"/>
  <path stroke="#000"
        d="m117.7 95.6c5.8 0.6 7.7 4.1 7.2 5.4-0.5 1.4-4.7 2.9-9-0.4-3.8-2.9-7.8-4-7.3-5.4 0.5-1.4 4.3 0 9.1 0.4z"/>
  <path stroke="#000"
        d="m107.2 85.9c0.5-5.9 3.9-7.9 5.3-7.4 1.4 0.4 3 4.7-0.2 9-2.8 3.9-3.9 7.9-5.3 7.4-1.4-0.4-0.1-4.3 0.2-9z"/>
  <path stroke="#000"
        d="m107.5 97.6c-1.5 0-2.7-1.2-2.7-2.7 0-1.5 1.2-2.7 2.7-2.7 1.4 0 2.6 1.2 2.6 2.7 0 1.5-1.2 2.7-2.6 2.7z"/>
  <path fill="#000" stroke="#000" stroke-width="3" d="m108 57.9q-0.1 0.5-0.2 1.1-0.1 0.5-0.3 1-0.2 0.5-0.4 1.1-0.2 0.5-0.5 0.9"/>
  <path fill="none" stroke="#000" stroke-width="3"
        d="m90.1 42.4q-0.1-1.1-0.2-2.2 0-1.1 0.2-2.2 0.2-1.1 0.5-2.2 0.3-1 0.9-2 0.5-0.9 1.1-1.8 0.7-0.8 1.5-1.6 0.8-0.7 1.7-1.3 0.9-0.6 1.9-1 0.6-0.3 1.2-0.4 0.6-0.1 1.2 0 0.6 0.1 1.2 0.4 0.5 0.3 0.9 0.8 0.5 0.5 0.8 1.1 0.3 0.6 0.5 1.3 0.2 0.6 0.3 1.3 0 0.7-0.1 1.3c-0.4 2.1-0.6 2.7-1.2 4.7-0.6 2.5-5.2 4.7-8 5"/>
  <path stroke="#000"
        d="m84 40.2q0.5-0.2 1-0.1 0.6 0 1.1 0.2 0.5 0.2 0.9 0.5 0.4 0.4 0.7 0.8 0.2 0.4 0.4 0.9 0.1 0.5 0.1 1 0 0.6-0.1 1.1-0.1 0.5-0.3 0.9-0.2 0.5-0.5 1-0.2 0.4-0.5 0.8-0.3 0.4-0.7 0.8-0.3 0.4-0.7 0.7-0.4 0.3-0.8 0.6-0.4 0.3-0.8 0.6-0.5 0.2-0.9 0.4-0.3 0.1-0.6 0.2-0.3 0-0.6-0.1-0.3-0.1-0.5-0.3-0.2-0.1-0.4-0.4-0.4-0.5-0.6-1.2-0.2-0.6-0.4-1.2-0.1-0.7-0.1-1.3 0-0.7 0.1-1.3 0.1-0.7 0.4-1.4 0.3-0.6 0.7-1.2 0.4-0.5 0.9-1 0.5-0.4 1.2-0.7 0.4-0.2 1-0.3z"/>
  <path fill="none" stroke="#000" stroke-width="3" d="m78.3 38.9q0.6-0.4 1.4-0.5 0.7-0.1 1.5 0.2 0.7 0.2 1.2 0.7 0.6 0.6 0.8 1.3"/>
  <path fill="none" stroke="#000" stroke-width="3"
        d="m95.7 45.7c1.5-1.5 4.6-1.9 7.1-0.8q0.8 0.4 1.6 1 0.7 0.5 1.3 1.3 0.6 0.7 1.1 1.5 0.4 0.8 0.8 1.6 0.2 0.8 0.4 1.7 0.2 0.8 0.3 1.6 0.1 0.9 0.1 1.7 0 0.9-0.2 1.7 0 0.5-0.2 0.9-0.2 0.4-0.5 0.8-0.2 0.3-0.6 0.6-0.3 0.3-0.7 0.4-0.5 0.2-1 0.2-0.5 0.1-1 0.1-0.5-0.1-1-0.1-0.5-0.1-1-0.3c-3.8-1-7.3-3.4-8.6-6.4"/>
  <path stroke="#000"
        d="m95.6 55.8q1.6-0.7 2.9-1.9 1.2-1.1 2-2.6 0.8-1.5 1.1-3.2 0.2-1.7-0.1-3.4 0.7 0.2 1.3 0.6 0.7 0.3 1.2 0.8 0.6 0.4 1.1 0.9 0.5 0.5 1 1c1.2 1.6 1.7 2.4 0.4 5.4q-0.3 0.7-0.6 1.4-0.4 0.6-0.9 1.2-0.4 0.6-1 1.1-0.5 0.5-1.1 1-0.4 0.3-0.8 0.5-0.5 0.3-1 0.3-0.5 0.1-1 0.1-0.5-0.1-0.9-0.3-0.5-0.3-1-0.6-0.5-0.3-0.9-0.7-0.5-0.4-0.9-0.8-0.4-0.4-0.8-0.8z"/>
  <path stroke="#000"
        d="m86.3 46.1q0.2-0.5 0.4-1.1 0.3-0.5 0.6-1 0.3-0.4 0.7-0.9 0.6-0.6 1.4-1 0.8-0.3 1.6-0.5 0.9-0.1 1.7 0 0.9 0.1 1.6 0.4 0.9 0.4 1.6 1 0.6 0.7 1 1.5 0.5 0.8 0.6 1.7 0.1 0.9-0.1 1.8-0.3 0.9-0.6 1.6-0.3 0.8-0.8 1.5-0.5 0.7-1.1 1.4-0.5 0.6-1.2 1.1c-1.5 1.2-3.9 0.8-5.5-0.2-1.7-1.2-2.7-4.3-2.3-6.2q0.2-0.6 0.4-1.1z"/>
</svg>
